<svg width="147" height="61" viewBox="0 0 147 61" fill="none" xmlns="http://www.w3.org/2000/svg">
<path d="M128.058 3.25494e-05L147 30L128.058 61L7.12372e-05 61L-2.66639e-06 3.8147e-05L128.058 3.25494e-05Z" fill="white"/>
<path d="M69.008 20.1411C72.5677 20.1411 74.3476 22.0748 74.3476 25.941V27.1658H70.9222V25.7155C70.9222 24.2017 70.3165 23.4441 69.105 23.4441C67.8936 23.4441 67.2878 24.2017 67.2878 25.7155C67.2878 26.7571 67.6572 27.7564 68.3973 28.712C68.6871 29.0771 69.0677 29.4857 69.5391 29.9368L70.5043 30.8388C70.6324 30.9572 70.7456 31.0594 70.8413 31.1454C71.3774 31.64 71.8065 32.0686 72.1274 32.4337C72.5889 32.9383 72.9695 33.4379 73.2692 33.9313C74.0093 35.1336 74.3787 36.4768 74.3787 37.9582C74.3787 41.8244 72.5777 43.7581 68.9756 43.7581C65.3736 43.7581 63.5726 41.8244 63.5726 37.9582V35.7192H66.998V38.1837C66.998 39.6876 67.6249 40.4389 68.8799 40.4389C70.1237 40.4389 70.7456 39.6876 70.7456 38.1837C70.7456 37.1421 70.3811 36.1491 69.6523 35.2034C69.3625 34.8384 68.9819 34.4247 68.5105 33.9624L67.2082 32.7539C66.6722 32.2605 66.2381 31.8306 65.906 31.4656C65.4557 30.961 65.0801 30.4663 64.7803 29.9841C64.0403 28.7706 63.6709 27.4225 63.6709 25.941C63.6696 22.0748 65.4483 20.1411 69.008 20.1411Z" fill="#414042"/>
<path d="M87.1499 43.5001H83.4994L82.8725 39.3112H78.4334L77.8065 43.5001H74.4781L78.161 20.3989H83.4683L87.1499 43.5001ZM78.8849 36.1702H82.3911L80.6386 24.4906L78.8849 36.1702Z" fill="#414042"/>
<path d="M93.2917 20.3989C96.8937 20.3989 98.6948 22.3052 98.6948 26.1178V29.1144C98.6948 32.9157 96.8937 34.8171 93.2917 34.8171H91.5703V43.5001H87.9521V20.3989H93.2917ZM91.5703 23.7019V31.5315H93.2917C94.4708 31.5315 95.0604 30.8014 95.0604 29.3411V25.8774C95.0604 24.4271 94.4708 23.7032 93.2917 23.7032H91.5703V23.7019Z" fill="#414042"/>
<path d="M104.794 20.3989C108.396 20.3989 110.197 22.3052 110.197 26.1178V29.1144C110.197 32.9157 108.396 34.8171 104.794 34.8171H103.073V43.5001H99.4547V20.3989H104.794ZM103.074 23.7019V31.5315H104.796C105.975 31.5315 106.564 30.8014 106.564 29.3411V25.8774C106.564 24.4271 105.975 23.7032 104.796 23.7032H103.074V23.7019Z" fill="#414042"/>
<path d="M64.8687 47.9688H64.4955L64.4308 47.5402H63.9769L63.9122 47.9688H63.5726L63.9495 45.6064H64.4918L64.8687 47.9688ZM64.0229 47.2187H64.3811L64.202 46.0251L64.0229 47.2187Z" fill="#414042"/>
<path d="M65.9222 45.6057C66.2903 45.6057 66.4744 45.8001 66.4744 46.1901V46.4966C66.4744 46.8853 66.2903 47.0797 65.9222 47.0797H65.7468V47.968H65.3774V45.6057H65.9222ZM65.7455 45.9434V46.7433H65.9209C66.0416 46.7433 66.1013 46.6685 66.1013 46.519V46.1651C66.1013 46.0169 66.0416 45.9434 65.9209 45.9434H65.7455V45.9434Z" fill="#414042"/>
<path d="M67.5279 45.6057C67.896 45.6057 68.0801 45.8001 68.0801 46.1901V46.4966C68.0801 46.8853 67.896 47.0797 67.5279 47.0797H67.3525V47.968H66.9831V45.6057H67.5279ZM67.3525 45.9434V46.7433H67.5279C67.6485 46.7433 67.7082 46.6685 67.7082 46.519V46.1651C67.7082 46.0169 67.6485 45.9434 67.5279 45.9434H67.3525V45.9434Z" fill="#414042"/>
<path d="M68.5876 45.6057H68.957V47.6304H69.5665V47.968H68.5864V45.6057H68.5876Z" fill="#414042"/>
<path d="M70.4209 47.1856L69.952 45.6057H70.3401L70.6224 46.6822L70.9048 45.6057H71.258L70.7891 47.1856V47.968H70.4197V47.1856H70.4209Z" fill="#414042"/>
<path d="M71.7418 45.6057H72.1112V47.968H71.7418V45.6057Z" fill="#414042"/>
<path d="M73.0491 46.2574V47.9668H72.7158V45.6045H73.1809L73.5603 47.0199V45.6045H73.8911V47.9668H73.5093L73.0491 46.2574Z" fill="#414042"/>
<path d="M75.0478 46.6511H75.5677V47.3999C75.5677 47.7949 75.3837 47.993 75.0155 47.993C74.6473 47.993 74.4633 47.7949 74.4633 47.3999V46.1714C74.4633 45.7765 74.6473 45.5784 75.0155 45.5784C75.3837 45.5784 75.5677 45.7765 75.5677 46.1714V46.4019H75.2182V46.1478C75.2182 45.9933 75.1536 45.916 75.0254 45.916C74.8973 45.916 74.8327 45.9933 74.8327 46.1478V47.4224C74.8327 47.5756 74.8973 47.6529 75.0254 47.6529C75.1536 47.6529 75.2182 47.5756 75.2182 47.4224V46.9875H75.0491V46.6511H75.0478Z" fill="#414042"/>
<path d="M76.8986 45.6057H78.0428V45.9434H77.656V47.968H77.2866V45.9434H76.8986V45.6057V45.6057Z" fill="#414042"/>
<path d="M78.9173 47.968H78.5479V45.6057H78.9173V46.6187H79.3377V45.6057H79.7158V47.968H79.3377V46.9563H78.9173V47.968Z" fill="#414042"/>
<path d="M80.6275 46.6025H81.1374V46.9389H80.6275V47.6304H81.2668V47.968H80.2568V45.6057H81.2668V45.9434H80.6275V46.6025Z" fill="#414042"/>
<path d="M83.4646 47.968C83.4521 47.9307 83.4447 47.8983 83.4397 47.8721C83.4347 47.8297 83.431 47.7649 83.431 47.6777V47.3077C83.431 47.1071 83.3501 47.0062 83.1872 47.0062H83.0591V47.968H82.6897V45.6057H83.2482C83.6138 45.6057 83.7979 45.7864 83.7979 46.1489V46.3346C83.7979 46.5776 83.7171 46.737 83.5541 46.8143C83.7183 46.8828 83.8004 47.0498 83.8004 47.3164V47.6802C83.8004 47.8073 83.8141 47.9032 83.8402 47.9668H83.4646V47.968ZM83.0603 45.9434V46.6698H83.2046C83.3539 46.6698 83.4285 46.5863 83.4285 46.4193V46.1876C83.4285 46.0256 83.3651 45.9434 83.2394 45.9434H83.0603Z" fill="#414042"/>
<path d="M84.38 45.6057H84.7494V47.968H84.38V45.6057Z" fill="#414042"/>
<path d="M85.9123 46.6511H86.4322V47.3999C86.4322 47.7949 86.2482 47.993 85.88 47.993C85.5118 47.993 85.3278 47.7949 85.3278 47.3999V46.1714C85.3278 45.7765 85.5118 45.5784 85.88 45.5784C86.2482 45.5784 86.4322 45.7765 86.4322 46.1714V46.4019H86.0827V46.1478C86.0827 45.9933 86.0181 45.916 85.8899 45.916C85.7618 45.916 85.6972 45.9933 85.6972 46.1478V47.4224C85.6972 47.5756 85.7618 47.6529 85.8899 47.6529C86.0181 47.6529 86.0827 47.5756 86.0827 47.4224V46.9875H85.9136V46.6511H85.9123Z" fill="#414042"/>
<path d="M87.375 47.968H87.0056V45.6057H87.375V46.6187H87.7954V45.6057H88.1735V47.968H87.7954V46.9563H87.375V47.968Z" fill="#414042"/>
<path d="M88.6785 45.6057H89.8228V45.9434H89.436V47.968H89.0666V45.9434H88.6785V45.6057V45.6057Z" fill="#414042"/>
<path d="M91.1848 45.6057H91.5542V47.6304H92.1636V47.968H91.1848V45.6057Z" fill="#414042"/>
<path d="M93.0393 46.6025H93.5492V46.9389H93.0393V47.6304H93.6786V47.968H92.6686V45.6057H93.6786V45.9434H93.0393V46.6025Z" fill="#414042"/>
<path d="M95.4422 47.968H95.0691L95.0044 47.5394H94.5504L94.4858 47.968H94.145L94.5218 45.6057H95.0641L95.4422 47.968ZM94.5977 47.218H94.9559L94.7768 46.0244L94.5977 47.218Z" fill="#414042"/>
<path d="M96.7246 47.968C96.7121 47.9307 96.7047 47.8983 96.6997 47.8721C96.6947 47.8297 96.691 47.7649 96.691 47.6777V47.3077C96.691 47.1071 96.6102 47.0062 96.4472 47.0062H96.3191V47.968H95.9497V45.6057H96.5082C96.8738 45.6057 97.0579 45.7864 97.0579 46.1489V46.3346C97.0579 46.5776 96.9771 46.737 96.8141 46.8143C96.9783 46.8828 97.0604 47.0498 97.0604 47.3164V47.6802C97.0604 47.8073 97.0741 47.9032 97.1002 47.9668H96.7246V47.968ZM96.3204 45.9434V46.6698H96.4646C96.6139 46.6698 96.6885 46.5863 96.6885 46.4193V46.1876C96.6885 46.0256 96.6251 45.9434 96.4995 45.9434H96.3204Z" fill="#414042"/>
<path d="M97.9708 46.2574V47.9668H97.6375V45.6045H98.1027L98.482 47.0199V45.6045H98.8129V47.9668H98.4311L97.9708 46.2574Z" fill="#414042"/>
<path d="M99.4136 45.6057H99.783V47.968H99.4136V45.6057Z" fill="#414042"/>
<path d="M100.721 46.2574V47.9668H100.388V45.6045H100.853L101.232 47.0199V45.6045H101.563V47.9668H101.181L100.721 46.2574Z" fill="#414042"/>
<path d="M102.72 46.6511H103.24V47.3999C103.24 47.7949 103.055 47.993 102.687 47.993C102.319 47.993 102.135 47.7949 102.135 47.3999V46.1714C102.135 45.7765 102.319 45.5784 102.687 45.5784C103.055 45.5784 103.24 45.7765 103.24 46.1714V46.4019H102.889V46.1478C102.889 45.9933 102.824 45.916 102.696 45.916C102.568 45.916 102.503 45.9933 102.503 46.1478V47.4224C102.503 47.5756 102.568 47.6529 102.696 47.6529C102.824 47.6529 102.889 47.5756 102.889 47.4224V46.9875H102.72V46.6511V46.6511Z" fill="#414042"/>
<path d="M51.7691 39.132C54.146 37.4002 56.8736 35.0777 59.7853 31.9778C59.7853 31.9778 61.0341 34.3438 59.7057 35.6496C59.0913 36.2526 56.3313 38.8318 53.1398 41.0757C49.9606 43.3384 46.6099 45.0802 45.8375 45.4577C44.1646 46.2738 42.3574 44.304 42.3574 44.304C46.2454 42.5933 49.3437 40.7966 51.7691 39.132Z" fill="#414042"/>
<path d="M53.7777 41.8132C55.4394 40.6034 57.3462 38.9787 59.381 36.8132C59.381 36.8132 60.2541 38.4666 59.3263 39.3799C58.8972 39.801 56.9681 41.6039 54.7367 43.1726C52.514 44.7537 50.172 45.971 49.6322 46.2351C48.463 46.8058 47.1993 45.429 47.1993 45.429C49.917 44.2329 52.0837 42.9769 53.7777 41.8132Z" fill="#414042"/>
<path d="M56.2281 45.4316C56.9271 44.937 57.488 44.385 57.8425 43.8829L57.8997 43.8418L57.631 47.4862L54.1124 46.5206L54.2293 46.4384C54.8213 46.2702 55.5278 45.925 56.2281 45.4316Z" fill="#414042"/>
<path d="M36.6582 26.5058C36.8075 29.1572 37.7354 32.3356 38.56 34.7702C37.6757 35.0779 36.8336 35.3371 36.0239 35.6C33.6794 36.3625 32.1346 36.765 30.9878 37.5748C30.8149 37.6982 30.3734 37.971 30.2366 38.1006C29.1395 35.4131 28.3547 31.3127 28.1047 26.988C27.7987 21.3937 28.1184 16.8435 29.6644 13.9491C30.3286 12.7044 38.6831 8.44699 39.0003 9.06C40.1856 11.3538 36.249 19.2282 36.6582 26.5058Z" fill="url(#paint0_linear)"/>
<path d="M38.8113 15.556C39.4879 12.8373 39.9046 10.6519 39.6272 9.20166C42.5028 9.67886 46.4979 11.3235 50.3312 13.4242C53.1969 15.0065 56.177 16.7384 58.044 18.3432C57.9183 18.413 57.5303 18.6485 57.4009 18.7394C56.2554 19.5505 55.1658 20.9622 53.6621 22.9208C53.1186 23.6285 52.5103 24.5455 51.8934 25.3131C50.284 23.8117 48.1596 22.02 46.2068 20.946C43.8523 19.6515 40.7727 18.6734 38.2466 18.0816C38.4543 17.1595 38.6035 16.3896 38.8113 15.556Z" fill="url(#paint1_linear)"/>
<path d="M30.402 38.8232C31.7167 36.6004 40.4692 35.7718 46.4133 31.568C52.3574 27.3642 56.0676 19.3801 58.5975 18.8842C59.2728 18.7521 61.1385 27.9535 60.5788 29.248C59.2766 32.2608 55.9159 35.3407 51.3524 38.579C46.7777 41.8035 42.7566 43.9428 39.4866 44.1633C38.0824 44.2593 30.0513 39.4163 30.402 38.8232Z" fill="url(#paint2_linear)"/>
<path d="M50.9954 25.7268C51.0912 26.3909 47.9954 29.5892 45.9854 30.8776C43.9369 32.1895 40.055 34.2778 39.2229 33.8118C38.6819 33.509 37.3535 28.2548 37.259 26.1629C37.1657 24.0834 37.6321 19.3189 38.3187 18.9202C38.8125 18.6336 43.1123 19.9755 45.4419 21.2663C47.6596 22.4973 50.8437 24.6814 50.9954 25.7268Z" fill="url(#paint3_linear)"/>
<defs>
<linearGradient id="paint0_linear" x1="33.6118" y1="8.99895" x2="33.6118" y2="38.1017" gradientUnits="userSpaceOnUse">
<stop stop-color="#FED317"/>
<stop offset="1" stop-color="#F9A420"/>
</linearGradient>
<linearGradient id="paint1_linear" x1="53.5623" y1="23.6396" x2="39.363" y2="9.46493" gradientUnits="userSpaceOnUse">
<stop stop-color="#FED317"/>
<stop offset="1" stop-color="#F9A420"/>
</linearGradient>
<linearGradient id="paint2_linear" x1="35.7497" y1="44.3515" x2="59.9587" y2="20.1845" gradientUnits="userSpaceOnUse">
<stop stop-color="#FED317"/>
<stop offset="1" stop-color="#F9A420"/>
</linearGradient>
<linearGradient id="paint3_linear" x1="37.2468" y1="26.3806" x2="50.9973" y2="26.3806" gradientUnits="userSpaceOnUse">
<stop stop-color="#FED317"/>
<stop offset="1" stop-color="#F9A420"/>
</linearGradient>
</defs>
</svg>
